# xmcd
#
# Track frame offsets: 
#        150
#        17345
#        30935
#        49300
#        69690
#        91057
#        107150
#        121067
#        137855
#        157505
#        176335
#        188734
#
# Disc length: 2675 seconds
#
# Revision: 4
# Processed by: cddbd v1.5.2PL0 Copyright (c) Steve Scherf et al.
# Submitted via: ExactAudioCopy v0.95b3
#
DISCID=880a710c
DTITLE=Johnny Winter - Still Alive And Well
DYEAR=1973
DGENRE=Blues
TTITLE0=Rock Me Baby
TTITLE1=Can't You Feel It
TTITLE2=Cheap Tequila
TTITLE3=All Tore Down
TTITLE4=Rock and Roll
TTITLE5=Silver Train
TTITLE6=Ain't Nothing To Me
TTITLE7=Still Alive and Well
TTITLE8=Too Much Seconal
TTITLE9=Let It Bleed
TTITLE10=Lucille (Bonus Track)
TTITLE11=From A Buick Six (Bonus Track)
EXTD=LABEL =Sony Music Entertainment Inc.\nID =CK66421\nUPC =07464-
EXTD=66421-22\nCOPYRIGHT =1973 YEAR: 1973
EXTT0=
EXTT1=
EXTT2=
EXTT3=
EXTT4=
EXTT5=
EXTT6=
EXTT7=
EXTT8=
EXTT9=
EXTT10=
EXTT11=
PLAYORDER=
